<svg xmlns="http://www.w3.org/2000/svg" width="151.313" height="48.915" viewBox="0 0 151.313 48.915">
  <g id="Camada_x0020_1" transform="translate(-0.012 -0.018)">
    <g id="_2917428838928" transform="translate(0.012 0.018)">
      <path id="Caminho_686" data-name="Caminho 686" d="M56.149,73.146l.426-33.326L39.82,54.655,40.2,84.59Z" transform="translate(-39.261 -39.261)" fill="#95ff80" fill-rule="evenodd"/>
      <path id="Caminho_687" data-name="Caminho 687" d="M1203.375,39.82l-.426,33.326,23.136,9.12.359-32.44Z" transform="translate(-1186.062 -39.261)" fill="#62d85e" fill-rule="evenodd"/>
      <path id="Caminho_688" data-name="Caminho 688" d="M85.728,2413.68,69.82,2425.092l0,.093,11.6,2.944,8.371-5.024,10.675,5.045,8.395-5.35Z" transform="translate(-68.84 -2379.795)" fill="#47c44c" fill-rule="evenodd"/>
      <path id="Caminho_689" data-name="Caminho 689" d="M1219.089,1697.08l-13.839,10.073,22.815,8.72Z" transform="translate(-1188.33 -1673.255)" fill="rgba(206,255,194,0.6)" fill-rule="evenodd"/>
      <path id="Caminho_690" data-name="Caminho 690" d="M95.43,143.5l15.128-10.834.391-32.306Z" transform="translate(-94.09 -98.951)" fill="#ceffc2" fill-rule="evenodd"/>
      <path id="Caminho_691" data-name="Caminho 691" d="M17.873,1.423l-.41,32.1L39.486,42.2l.346-31.257L17.873,1.423Zm-1.433,24.7.31-24.29L1.132,15.66l.359,28.605L16.344,33.61l.1-7.489Zm.539,8.414L1.273,45.8v0a.559.559,0,0,1-.884-.448L.012,15.423a.557.557,0,0,1,.188-.43L16.955.158a.559.559,0,0,1,.613-.085L40.6,10.061a.559.559,0,0,1,.357.526l-.359,32.405a.56.56,0,0,1-.763.552L16.979,34.536Z" transform="translate(-0.012 -0.018)" fill="green"/>
      <path id="Caminho_692" data-name="Caminho 692" d="M46.414,2374.973l-14.776,10.6,10.3,2.615,8.171-4.9a.56.56,0,0,1,.526-.026l10.4,4.914,7.208-4.594-21.831-8.605ZM30.1,2385.3l15.908-11.412a.563.563,0,0,1,.53-.065l23.136,9.12h0a.559.559,0,0,1,.1.992l-8.364,5.331a.56.56,0,0,1-.57.054L50.431,2384.4l-8.088,4.854a.558.558,0,0,1-.45.079l-11.6-2.943a.561.561,0,0,1-.423-.522l0-.051a.562.562,0,0,1,.231-.52Z" transform="translate(-29.447 -2340.455)" fill="green"/>
      <path id="Caminho_693" data-name="Caminho 693" d="M1182.225,1658.532l-12.46,9.069,20.541,7.851Zm-13.809,8.876,13.655-10.145a.571.571,0,0,1,.129-.085.561.561,0,0,1,.747.265l8.976,18.793a.561.561,0,0,1-.706.765l-22.815-8.72v0a.555.555,0,0,1-.253-.193c-.182-.249.016-.5.265-.677Z" transform="translate(-1151.682 -1633.86)" fill="green"/>
      <path id="Caminho_694" data-name="Caminho 694" d="M3259.211,832.574c.233,0,.473,0,.709-.021a5.738,5.738,0,0,0,.595-.07v-2.075a2.592,2.592,0,0,0-.7-.142,5.036,5.036,0,0,0-1.036.027,1.62,1.62,0,0,0-.569.18,1.153,1.153,0,0,0-.39.346.774.774,0,0,0-.112.25,1.322,1.322,0,0,0-.039.338,1.011,1.011,0,0,0,.438.93A2.088,2.088,0,0,0,3259.211,832.574Zm15.63.832h-.807a.124.124,0,0,1-.124-.124V828.11a.125.125,0,0,1,.1-.123c.086-.021.2-.045.314-.072.146-.033.308-.069.483-.112a.123.123,0,0,1,.154.12v5.359a.124.124,0,0,1-.124.124Zm-.931-6.218v-1.274a.124.124,0,0,1,.124-.124h.807a.124.124,0,0,1,.125.124v1.063a.124.124,0,0,1-.106.123c-.123.028-.257.06-.4.1s-.27.072-.387.11a.124.124,0,0,1-.156-.08.139.139,0,0,1-.006-.038Zm-3.654,5.97c-.118.041-.258.081-.417.122s-.333.08-.515.117a5.5,5.5,0,0,1-.648.086q-.36.029-.792.029a3.973,3.973,0,0,1-.7-.059,3.264,3.264,0,0,1-.635-.179,3,3,0,0,1-.561-.293,2.869,2.869,0,0,1-.477-.4,2.958,2.958,0,0,1-.386-.5,3.4,3.4,0,0,1-.287-.6,3.7,3.7,0,0,1-.178-.684,4.721,4.721,0,0,1-.059-.762,4.61,4.61,0,0,1,.2-1.384,3.453,3.453,0,0,1,.247-.595,2.956,2.956,0,0,1,.342-.51,2.652,2.652,0,0,1,.435-.417,2.761,2.761,0,0,1,.522-.312,2.729,2.729,0,0,1,.606-.2,3.449,3.449,0,0,1,.681-.065,3.785,3.785,0,0,1,.612.047,2.655,2.655,0,0,1,.532.142q.24.092.414.18l.095.05v-3.227a.124.124,0,0,1,.112-.124l.8-.147a.124.124,0,0,1,.144.1l0,.022v9.44a.125.125,0,0,1-.088.119Zm-.969-5.113-.071-.049c-.047-.031-.1-.062-.148-.093s-.11-.062-.172-.091-.132-.06-.2-.086-.146-.053-.224-.076-.157-.043-.242-.061a2.288,2.288,0,0,0-.254-.04,2.607,2.607,0,0,0-.267-.013,2.024,2.024,0,0,0-.943.2,1.793,1.793,0,0,0-.341.231,1.637,1.637,0,0,0-.267.3,2.056,2.056,0,0,0-.2.363,2.5,2.5,0,0,0-.139.426,3.964,3.964,0,0,0-.081.478,4.539,4.539,0,0,0-.027.506,2.624,2.624,0,0,0,.6,1.859,1.93,1.93,0,0,0,.692.477,2.372,2.372,0,0,0,.895.16,6.563,6.563,0,0,0,.944-.054c.12-.019.225-.037.314-.056.049-.011.094-.021.133-.032Zm-10.15-1.459a2.42,2.42,0,0,1,1.81.642,2.567,2.567,0,0,1,.625,1.855v4.05a.125.125,0,0,1-.1.121c-.041.012-.093.025-.154.039h-.005c-.061.014-.131.028-.208.042a12.645,12.645,0,0,1-1.5.2,4.946,4.946,0,0,1-1.507-.1,1.98,1.98,0,0,1-1.125-.713,2.136,2.136,0,0,1-.39-1.307,1.82,1.82,0,0,1,.74-1.562,3.575,3.575,0,0,1,2.08-.538,4.35,4.35,0,0,1,.528.035,5.135,5.135,0,0,1,.551.1l.028.007c0-.683,0-1.408-.672-1.75a1.2,1.2,0,0,0-.32-.105,2.247,2.247,0,0,0-.425-.037q-.353,0-.607.024h0a2.336,2.336,0,0,0-.412.07q-.169.048-.3.089c-.084.026-.151.05-.2.069a.125.125,0,0,1-.16-.072.122.122,0,0,1-.007-.034l-.11-.7a.124.124,0,0,1,.069-.131,1.923,1.923,0,0,1,.288-.1q.168-.048.394-.092a4.5,4.5,0,0,1,.5-.067h0q.27-.022.583-.022Zm21.507,5.987c.233,0,.473-.005.709-.021a5.726,5.726,0,0,0,.6-.07v-2.075a2.59,2.59,0,0,0-.7-.142,5.024,5.024,0,0,0-1.036.027,1.622,1.622,0,0,0-.569.18,1.151,1.151,0,0,0-.39.346.771.771,0,0,0-.112.25,1.324,1.324,0,0,0-.039.338,1.011,1.011,0,0,0,.437.93A2.089,2.089,0,0,0,3280.644,832.575Zm-.074-5.987a2.419,2.419,0,0,1,1.81.642,2.565,2.565,0,0,1,.625,1.855v4.05a.124.124,0,0,1-.093.12c-.04.012-.093.025-.156.04s-.132.028-.213.043a12.659,12.659,0,0,1-1.5.2,4.947,4.947,0,0,1-1.507-.1,1.98,1.98,0,0,1-1.126-.713,2.135,2.135,0,0,1-.39-1.307,1.82,1.82,0,0,1,.74-1.562,3.575,3.575,0,0,1,2.08-.538,4.335,4.335,0,0,1,.527.035,5.16,5.16,0,0,1,.551.1l.028.007c0-.683,0-1.408-.672-1.75a1.2,1.2,0,0,0-.32-.105,2.248,2.248,0,0,0-.425-.037q-.352,0-.606.024h0a2.332,2.332,0,0,0-.412.07c-.123.035-.222.065-.3.088s-.152.05-.2.07a.124.124,0,0,1-.16-.072.133.133,0,0,1-.008-.034l-.11-.7a.124.124,0,0,1,.07-.131,1.9,1.9,0,0,1,.287-.1q.168-.048.394-.092a4.5,4.5,0,0,1,.5-.067h0q.27-.022.583-.022Zm5.992.374c.124-.034.263-.069.418-.1s.341-.076.548-.118a5.963,5.963,0,0,1,.691-.1q.378-.031.824-.031a2.452,2.452,0,0,1,2.1.86,3.628,3.628,0,0,1,.569,2.221v3.59a.124.124,0,0,1-.124.124h-.807a.125.125,0,0,1-.124-.124v-3.329q0-.337-.023-.62a4.662,4.662,0,0,0-.068-.511,1.442,1.442,0,0,0-.538-.967,1.912,1.912,0,0,0-1.11-.261,6.7,6.7,0,0,0-.97.061c-.138.021-.25.04-.335.057l-.1.022v5.549a.124.124,0,0,1-.124.124h-.808a.124.124,0,0,1-.124-.124v-6.2A.125.125,0,0,1,3286.562,826.962Zm9.613-.225h2.434a.124.124,0,0,1,.124.124v.683a.124.124,0,0,1-.124.124h-2.434v3.292a3.13,3.13,0,0,0,.117.952.819.819,0,0,0,.571.592,2.5,2.5,0,0,0,.675.057,2.052,2.052,0,0,0,.618-.109q.153-.058.269-.11c.075-.034.141-.067.2-.1a.124.124,0,0,1,.169.046.115.115,0,0,1,.013.033l.2.664a.125.125,0,0,1-.052.14,1.719,1.719,0,0,1-.259.13q-.156.065-.379.138a2.9,2.9,0,0,1-.474.112,3.421,3.421,0,0,1-.509.037,1.992,1.992,0,0,1-1.791-.742,3.36,3.36,0,0,1-.42-1.917v-5.913a.124.124,0,0,1,.112-.124l.8-.147a.124.124,0,0,1,.145.1l0,.022v1.913Zm6.374,6.671h-.808a.124.124,0,0,1-.125-.124V828.11a.125.125,0,0,1,.1-.123c.085-.02.195-.045.314-.072.146-.033.308-.069.484-.112a.125.125,0,0,1,.15.091.156.156,0,0,1,0,.03v5.359A.124.124,0,0,1,3302.549,833.407Zm-.932-6.218v-1.274a.125.125,0,0,1,.125-.124h.808a.124.124,0,0,1,.124.124v1.063a.124.124,0,0,1-.106.123c-.123.028-.257.06-.4.1s-.27.072-.386.11a.124.124,0,0,1-.157-.08A.13.13,0,0,1,3301.617,827.189Z" transform="translate(-3210.871 -811.916)" fill="#263138"/>
      <path id="Caminho_695" data-name="Caminho 695" d="M3232.9,1755.587v-16.152h10.209v2.494h-7.272v4.125h5.342v2.494h-5.342v7.039H3232.9Zm16.535-9.649a8.947,8.947,0,0,0-.967-.245,6.668,6.668,0,0,0-2.424-.035,5.961,5.961,0,0,0-.734.163v9.766h-2.82V1743.98a15.491,15.491,0,0,1,2.039-.571,12.733,12.733,0,0,1,2.716-.268,9.314,9.314,0,0,1,1.4.128,8.166,8.166,0,0,1,1.282.292l-.489,2.378Zm5.159,7.668a10.527,10.527,0,0,0,1.981-.14v-3.123a5.465,5.465,0,0,0-.676-.14,6.291,6.291,0,0,0-.979-.07c-1.149,0-2.657.246-2.657,1.7a1.492,1.492,0,0,0,.629,1.387,3.246,3.246,0,0,0,1.7.385Zm-.233-10.512c2.106,0,4.089.626,4.7,2.855a7.5,7.5,0,0,1,.245,1.97v7.388q-.653.14-1.969.338a20.1,20.1,0,0,1-2.972.2c-2.69,0-4.917-.888-4.917-3.939a3.554,3.554,0,0,1,.408-1.771,3.927,3.927,0,0,1,2.727-1.83,8.919,8.919,0,0,1,4,.058,3.083,3.083,0,0,0-.524-2.179,2.5,2.5,0,0,0-1.97-.711,10.669,10.669,0,0,0-1.794.14,7.865,7.865,0,0,0-1.329.326l-.35-2.284a11.063,11.063,0,0,1,1.562-.373A12.228,12.228,0,0,1,3254.36,1743.094Zm13.759,6.083a5.933,5.933,0,0,0-.478-2.762c-.555-.989-1.835-.9-2.808-.781q-.56.07-.839.117v9.836h-2.82v-11.794a18.921,18.921,0,0,1,2.133-.443,17.714,17.714,0,0,1,2.785-.21,5.544,5.544,0,0,1,2.063.327,3.977,3.977,0,0,1,1.34.862,6.915,6.915,0,0,1,3.683-1.189c2.383,0,4.05.913,4.51,3.322a12.11,12.11,0,0,1,.2,2.272v6.852h-2.82v-6.41a6.063,6.063,0,0,0-.466-2.762,1.859,1.859,0,0,0-1.794-.851,3.716,3.716,0,0,0-1.282.221,4.163,4.163,0,0,0-.909.432,8.678,8.678,0,0,1,.326,2.633v6.736h-2.82Zm10.962.373a7.676,7.676,0,0,1,.478-2.82,5.934,5.934,0,0,1,1.27-2.016,5.482,5.482,0,0,1,3.916-1.62,5.021,5.021,0,0,1,3.927,1.562,7.309,7.309,0,0,1,1.4,5.186c-.007.194-.02.369-.035.524l-6.214.117.013-2.075,3.427-.117a2.523,2.523,0,0,0-3.636-2.6,3.165,3.165,0,0,0-1.608,2.6l-.023,2.074a3.217,3.217,0,0,0,1.038,2.272,3.941,3.941,0,0,0,2.668.8,8.774,8.774,0,0,0,1.876-.187,7.737,7.737,0,0,0,1.34-.4l.373,2.307a6.692,6.692,0,0,1-1.573.478,9.434,9.434,0,0,1-5.162-.233c-2.51-1.009-3.473-3.285-3.473-5.862Zm19.691-1.631c-.678,2.592-1.493,5.138-2.374,7.668h-2.315q-.472-1.072-.982-2.447c-1.187-3.182-2.164-6.468-3.058-9.742h2.983c.14.653.306,1.355.494,2.109.554,2.227,1.114,4.487,1.872,6.654.484-1.485.932-2.989,1.333-4.5.375-1.414.735-2.836,1.049-4.265h2.167q.47,2.141,1.014,4.265c.386,1.514.828,3.013,1.313,4.5.71-2.186,1.317-4.424,1.873-6.654.187-.754.353-1.457.493-2.109h2.914c-.624,2.286-1.293,4.555-2.032,6.806a52.173,52.173,0,0,1-2.032,5.384h-2.292c-.889-2.529-1.742-5.073-2.42-7.668Zm20.11,1.561c0,2.537-1.025,4.919-3.461,5.967a5.989,5.989,0,0,1-2.389.466,5.532,5.532,0,0,1-5.419-3.8,7.686,7.686,0,0,1-.431-2.634,7.585,7.585,0,0,1,.431-2.622,5.783,5.783,0,0,1,10.838,0A7.573,7.573,0,0,1,3318.883,1749.48Zm-2.89,0a4.758,4.758,0,0,0-.781-2.879,2.77,2.77,0,0,0-4.358,0,4.758,4.758,0,0,0-.781,2.879,4.855,4.855,0,0,0,.781,2.913,2.75,2.75,0,0,0,4.358,0A4.855,4.855,0,0,0,3315.993,1749.48Zm11.172-3.543a8.947,8.947,0,0,0-.967-.245,6.666,6.666,0,0,0-2.424-.035,5.953,5.953,0,0,0-.734.163v9.766h-2.82V1743.98a15.5,15.5,0,0,1,2.04-.571,12.728,12.728,0,0,1,2.715-.268,9.308,9.308,0,0,1,1.4.128,8.166,8.166,0,0,1,1.282.292Zm3.691,2.214v7.435h-2.82V1739.8l2.82-.466v8.822Zm.952-.949c1.158-1.224,2.3-2.52,3.384-3.806h3.333c-1.645,1.842-3.315,3.669-5.046,5.431a16.131,16.131,0,0,1,1.464,1.41,29.591,29.591,0,0,1,2.839,3.624,19.179,19.179,0,0,1,1.045,1.725h-3.263a22.4,22.4,0,0,0-3.426-4.463c-.08-.082-.279-.193-.359-.271l.029-3.65Z" transform="translate(-3187.514 -1714.912)" fill="#58cc4d"/>
    </g>
  </g>
</svg>
